#!OML:ASF E:\Style6\Style6.ASF
:FULLY-SPECIFIED
:DEGREES
3461
root 0.1653 18.2176 0.434124 11.6613 -3.16587 -3.51663
lowerback -3.38877 0.28954 2.00317
upperback -4.53627 0.401615 2.2831
thorax -2.76902 0.178544 1.2298
lowerneck -9.73646 -0.386323 3.08782
upperneck 11.7435 -0.396164 -4.48861
head 5.11051 -0.360249 -1.93258
rclavicle -2.04375e-015 -2.78299e-015
rhumerus 82.5864 60.7522 9.47168
rradius 120.49
rwrist -7.04065
rhand -17.2039 21.9705
rfingers 7.12502
rthumb 9.03862 -7.81588
lclavicle -2.04375e-015 -2.78299e-015
lhumerus 57.0169 -55.3943 21.9961
lradius 64.9904
lwrist 22.8004
lhand -4.46731 22.3129
lfingers 7.12502
lthumb 21.3051 51.1618
rfemur -14.1178 11.4991 21.2602
rtibia 12.7064
rfoot -3.72667 -14.3183
rtoes -19.9246
lfemur -17.844 -15.5879 -12.7119
ltibia 22.481
lfoot -8.14172 20.2884
ltoes -14.2102
3462
root 0.171758 18.2194 0.436408 11.6648 -3.39963 -3.5317
lowerback -3.28894 0.18252 2.25572
upperback -4.57371 0.259915 2.28571
thorax -2.86242 0.0990336 1.08984
lowerneck -9.73282 -0.155405 3.26769
upperneck 11.7824 -0.0737643 -4.76068
head 5.13424 -0.213052 -2.02473
rclavicle -6.44808e-015 2.62396e-014
rhumerus 79.0028 59.3395 4.02888
rradius 120.477
rwrist -8.26276
rhand -17.8131 21.6978
rfingers 7.12502
rthumb 8.45069 -8.11309
lclavicle -6.44808e-015 2.62396e-014
lhumerus 58.6076 -57.4798 18.737
lradius 64.9256
lwrist 22.142
lhand -3.16474 22.4189
lfingers 7.12502
lthumb 22.5559 51.1212
rfemur -14.0638 11.6376 21.2215
rtibia 12.5766
rfoot -3.58196 -14.2725
rtoes -20.3798
lfemur -17.7514 -15.5963 -12.7538
ltibia 22.4396
lfoot -8.1914 20.4969
ltoes -14.064
3463
root 0.17792 18.2206 0.437588 11.6958 -3.68959 -3.43146
lowerback -3.33231 0.11443 2.35005
upperback -4.51699 0.16324 2.26094
thorax -2.7788 0.0477521 1.0106
lowerneck -9.91386 0.0309345 3.41711
upperneck 11.8319 0.184023 -4.99541
head 5.19116 -0.0986201 -2.1057
rclavicle 8.42971e-015 1.35174e-014
rhumerus 75.4873 57.5847 -1.2477
rradius 120.038
rwrist -8.92883
rhand -18.4113 21.2103
rfingers 7.12502
rthumb 7.87342 -8.62309
lclavicle 8.42971e-015 1.35174e-014
lhumerus 60.5132 -59.414 15.2605
lradius 65.3663
lwrist 22.0594
lhand -2.02939 22.4893
lfingers 7.12502
lthumb 23.6452 51.0553
rfemur -14.0665 11.7634 21.043
rtibia 12.4645
rfoot -3.49991 -14.1902
rtoes -20.3698
lfemur -17.6767 -15.6171 -12.9217
ltibia 22.3609
lfoot -8.19742 20.7618
ltoes -14.1273
3464
root 0.182555 18.2206 0.440358 11.7714 -3.99542 -3.32738
lowerback -3.35157 0.0662833 2.38107
upperback -4.5182 0.0969316 2.24116
thorax -2.76916 0.0131115 0.972325
lowerneck -10.0983 0.186271 3.54592
upperneck 11.9204 0.39711 -5.17766
head 5.25973 -0.00394103 -2.17012
rclavicle 4.78326e-015 1.70955e-014
rhumerus 72.2696 55.7892 -6.1411
rradius 119.137
rwrist -9.09718
rhand -19.1278 20.6991
rfingers 7.12502
rthumb 7.18181 -9.15904
lclavicle 4.78326e-015 1.70955e-014
lhumerus 62.6319 -61.3911 11.705
lradius 66.2432
lwrist 22.5594
lhand -0.832132 22.4755
lfingers 7.12502
lthumb 24.7931 50.8883
rfemur -14.1473 11.9472 20.8402
rtibia 12.3849
rfoot -3.479 -14.1282
rtoes -20.179
lfemur -17.6349 -15.6229 -13.0798
ltibia 22.2567
lfoot -8.29181 20.9832
ltoes -13.5017
3465
root 0.188964 18.2214 0.445405 11.8572 -4.31566 -3.29453
lowerback -3.42962 0.0134771 2.48052
upperback -4.49078 0.0207225 2.25788
thorax -2.69726 -0.0274173 0.932998
lowerneck -10.2117 0.362701 3.6319
upperneck 11.8593 0.637905 -5.32854
head 5.27171 0.106 -2.21371
rclavicle 7.32397e-015 0
rhumerus 69.5509 53.9876 -10.5275
rradius 117.794
rwrist -9.29389
rhand -19.5697 20.2893
rfingers 7.12502
rthumb 6.75526 -9.58294
lclavicle 7.32397e-015 0
lhumerus 64.814 -63.2309 8.23869
lradius 67.3438
lwrist 23.4684
lhand 0.407992 22.1971
lfingers 7.12502
lthumb 25.9811 50.4411
rfemur -14.2584 12.1703 20.7034
rtibia 12.3528
rfoot -3.34035 -14.0732
rtoes -21.0054
lfemur -17.5821 -15.6168 -13.1701
ltibia 22.1551
lfoot -8.36226 21.2227
ltoes -12.8626
